<svg width="32" height="32" viewBox="0 0 32 32" fill="none" xmlns="http://www.w3.org/2000/svg">
  <!-- Background circle -->
  <circle cx="16" cy="16" r="16" fill="#8B5CF6"/>
  
  <!-- Palette shape -->
  <path d="M8 14C8 10.6863 10.6863 8 14 8H18C21.3137 8 24 10.6863 24 14C24 15.1046 23.1046 16 22 16H20C19.4477 16 19 16.4477 19 17C19 17.5523 19.4477 18 20 18C21.1046 18 22 18.8954 22 20C22 23.3137 19.3137 26 16 26C12.6863 26 10 23.3137 10 20V18C10 16.8954 9.10457 16 8 16V14Z" fill="white"/>
  
  <!-- Color dots -->
  <circle cx="14" cy="12" r="1.5" fill="#EF4444"/>
  <circle cx="18" cy="12" r="1.5" fill="#10B981"/>
  <circle cx="20" cy="14" r="1.5" fill="#3B82F6"/>
  <circle cx="16" cy="22" r="1.5" fill="#F59E0B"/>
  
  <!-- Brush stroke -->
  <path d="M12 20L14 18L16 20L14 22L12 20Z" fill="#8B5CF6"/>
</svg>